<?xml version="1.0" encoding="utf-8"?>
<!-- Generator: Adobe Illustrator 16.0.0, SVG Export Plug-In . SVG Version: 6.00 Build 0)  -->
<!DOCTYPE svg PUBLIC "-//W3C//DTD SVG 1.1//EN" "http://www.w3.org/Graphics/SVG/1.1/DTD/svg11.dtd">
<svg version="1.1" id="Layer_9" xmlns="http://www.w3.org/2000/svg" xmlns:xlink="http://www.w3.org/1999/xlink" x="0px" y="0px"
	 width="100px" height="100px" viewBox="0 0 100 100" enable-background="new 0 0 100 100" xml:space="preserve">
<path fill="#4583B1" d="M47.02,33.275h7.809v8.779h5.153v-29.57c0-2.041-1.653-3.696-3.694-3.696h-36.47
	c-2.041,0-3.697,1.655-3.697,3.696v75.032c0,2.041,1.656,3.696,3.697,3.696h13.121V67.188h10.164V47.082
	c0-2.184,1.607-3.997,3.916-4.705L47.02,33.275L47.02,33.275z M47.02,16.18h7.809v11.088H47.02V16.18z M29.217,78.521h-7.809V67.434
	h7.809V78.521z M29.217,62.29h-7.809V51.201h7.809V62.29z M29.217,44.363h-7.809V33.275h7.809V44.363z M29.217,27.269h-7.809V16.18
	h7.809V27.269z M42.24,62.29h-7.807V51.201h7.807V62.29z M42.24,44.363h-7.807V33.275h7.807V44.363z M42.24,27.269h-7.807V16.18
	h7.807V27.269z M80.746,45.011H49.857c-1.729,0-3.131,0.927-3.131,2.071v42.059c0,1.145,1.402,2.071,3.131,2.071h11.114V77.746
	h8.924v13.466h10.852c1.729,0,3.131-0.927,3.131-2.071V47.082C83.877,45.938,82.475,45.011,80.746,45.011z M57.816,84.1h-6.613
	v-6.216h6.613V84.1z M57.816,75h-6.613v-6.215h6.613V75z M57.816,64.952h-6.613v-6.216h6.613V64.952z M57.816,55.369h-6.613v-6.215
	h6.613V55.369z M68.85,75h-6.613v-6.215h6.613V75z M68.85,64.952h-6.613v-6.216h6.613V64.952z M68.85,55.369h-6.613v-6.215h6.613
	V55.369z M79.512,84.236h-6.613v-6.215h6.613V84.236z M79.512,75h-6.613v-6.215h6.613V75z M79.512,64.952h-6.613v-6.216h6.613
	V64.952z M79.512,55.369h-6.613v-6.215h6.613V55.369z"/>
</svg>
